<?xml version="1.0" standalone="no"?><!DOCTYPE svg PUBLIC "-//W3C//DTD SVG 1.1//EN" "http://www.w3.org/Graphics/SVG/1.1/DTD/svg11.dtd"><svg t="1516541718152" class="icon" style="" viewBox="0 0 1024 1024" version="1.1" xmlns="http://www.w3.org/2000/svg" p-id="3462" xmlns:xlink="http://www.w3.org/1999/xlink" width="200" height="200"><defs><style type="text/css"></style></defs><path d="M980.443438 883.846401c-5.247068-10.936659-16.310162-17.890604-28.479565-17.890604l-29.048525 0 0-505.74145c0-17.479689-14.129152-31.608841-31.608841-31.608841l-29.585875 0c11.72688-14.476849 19.028522-32.620323 19.028522-52.691937 0-30.81862-21.620447-50.542536-42.166193-84.269169-11.347574-18.712434-22.442277-41.091493-30.376096-58.06544-2.086183-4.614891-6.701074-7.491295-11.758489-7.491295s-9.609088 2.939622-11.758489 7.491295c-7.933819 16.973947-19.028522 39.353007-30.376096 58.06544-20.545746 33.726633-42.166193 53.450549-42.166193 84.269169 0 20.071614 7.270033 38.215088 19.028522 52.691937L594.847191 328.605507c26.519817-23.16928 43.6202-56.864304 43.6202-94.858131 0-46.180516-32.367453-75.766391-63.280899-126.372145-20.040005-32.99963-39.479442-73.585381-51.364366-99.725892C521.704334 3.00284 517.089443 0 512.00042 0.031609c-5.089023 0-9.703914 2.971231-11.821706 7.554513-11.884924 26.140511-31.324361 66.726263-51.364366 99.725892-30.881837 50.605754-63.280899 80.191629-63.280899 126.372145 0 37.993826 17.100383 71.68885 43.6202 94.858131L292.856328 328.542289c11.695271-14.476849 18.996913-32.620323 18.996913-52.691937 0-30.81862-21.620447-50.542536-42.166193-84.269169-11.379183-18.712434-22.442277-41.091493-30.376096-58.06544C237.19316 128.932461 232.609878 126.087665 227.552463 126.087665S217.943376 128.96407 215.793975 133.547352C207.860156 150.521299 196.765453 172.900358 185.417879 191.612792c-20.545746 33.726633-42.166193 53.450549-42.166193 84.269169 0 20.071614 7.270033 38.215088 18.996913 52.691937L132.694333 328.573898c-17.479689 0-31.608841 14.129152-31.608841 31.608841l0 505.74145L72.036968 865.924188c-12.169404 0-23.232498 6.985554-28.479565 17.890604-5.278676 10.936659-3.793061 23.959501 3.793061 33.473762l43.398938 54.209162c26.519817 33.157674 66.663045 52.470675 109.113718 52.470675l624.274602 0c42.482282 0 82.5939-19.313002 109.113718-52.470675l43.398938-54.209162C984.20489 907.774293 985.690505 894.751451 980.443438 883.846401zM754.218965 237.003087c2.433881-3.476972 5.057414-7.238424 7.649339-11.474009 10.020002-16.499815 19.91357-39.827139 20.008396-40.111619 3.413755-8.091863 12.675145-11.695271 20.703791-8.43956 8.028646 3.350537 11.790098 12.643536 8.43956 20.703791-0.442524 1.011483-10.873441 25.697987-22.126188 44.189159-2.971231 4.836153-5.942462 9.103346-8.692431 13.117669-6.606248 9.54587-10.051611 14.792937-10.051611 20.798617 0 14.540067 11.821706 26.361773 26.361773 26.361773 8.692431 0 15.80442 7.08038 15.80442 15.80442s-7.111989 15.80442-15.80442 15.80442c-31.988147 0-57.970614-25.982467-57.970614-57.970614C738.477763 259.666626 746.4748 248.192616 754.218965 237.003087zM455.136116 180.043956c3.761452-5.405112 7.775775-11.18953 11.758489-17.73256 15.393505-25.318681 30.376096-60.7838 30.53414-61.194715 3.350537-8.028646 12.611927-11.821706 20.703791-8.43956 8.028646 3.350537 11.853315 12.643536 8.43956 20.703791-0.663786 1.517224-16.057291 37.993826-32.683541 65.272256-4.330411 7.143598-8.692431 13.433757-12.80158 19.313002-10.841832 15.614767-16.499815 24.307198-16.499815 35.686381 0 26.17212 21.27275 47.44487 47.44487 47.44487 8.72404 0 15.80442 7.08038 15.80442 15.80442s-7.08038 15.80442-15.80442 15.80442c-43.588591 0-79.05371-35.465119-79.05371-79.05371C432.94671 211.905667 443.725324 196.417335 455.136116 180.043956zM185.323052 237.003087c2.433881-3.476972 5.057414-7.238424 7.649339-11.474009 10.020002-16.499815 19.91357-39.827139 20.008396-40.111619C216.394543 177.357205 225.719151 173.722188 233.684579 177.009507 241.713224 180.360044 245.506285 189.653044 242.124139 197.713298c-0.442524 1.011483-10.873441 25.697987-22.126188 44.189159C217.02672 246.770219 214.055489 251.037412 211.273911 255.051735 204.667663 264.565996 201.222299 269.813063 201.222299 275.850352c0 14.540067 11.821706 26.361773 26.361773 26.361773 8.72404 0 15.80442 7.08038 15.80442 15.80442s-7.08038 15.80442-15.80442 15.80442c-31.988147 0-57.970614-25.982467-57.970614-57.970614C169.58185 259.666626 177.578886 248.192616 185.323052 237.003087zM859.697667 865.924188l-695.394493 0 0-63.217681 695.394493 0L859.697667 865.924188zM859.697667 739.488826l-568.959131 0-126.435362 0 0-291.812816c2.623534 0.094827 5.057414 0.221262 8.376343 0.221262 54.841338 0 67.61131 61.89011 67.232004 121.251513-0.316088 50.732189-3.00284 170.340042 50.827016 170.340042 31.608841 0 63.849858-31.608841 63.849858-121.31473 0-57.24361 24.370416-145.558711 84.711693-145.558711 41.123102 0 85.375478 23.864675 108.860847 57.275219 58.634399 83.226077 90.24324-50.890233 149.193728-50.890233 80.918632 0 118.05902 146.823065 162.374614 131.714039L859.697667 739.488826 859.697667 739.488826z" p-id="3463" fill="#39220E" data-spm-anchor-id="a313x.7781069.0.i5" class=""></path></svg>